<?xml version="1.0" encoding="utf-8"?>
<!-- Generator: Adobe Illustrator 15.1.0, SVG Export Plug-In . SVG Version: 6.00 Build 0)  -->
<!DOCTYPE svg PUBLIC "-//W3C//DTD SVG 1.1//EN" "http://www.w3.org/Graphics/SVG/1.1/DTD/svg11.dtd">
<svg version="1.1" id="Layer_1" xmlns="http://www.w3.org/2000/svg" xmlns:xlink="http://www.w3.org/1999/xlink" x="0px" y="0px"
	 width="792px" height="612px" viewBox="0 0 792 612" enable-background="new 0 0 792 612" xml:space="preserve">
<g>
	<g>
		<path fill-rule="evenodd" clip-rule="evenodd" fill="#FFFFFF" d="M91.007,77.193c3.693,0,7.387,0,11.08,0
			c0,12.635,0,25.271,0,37.905c4.626,2.178,10.718,2.89,15.746,4.666c1.356-4.281,0.198-11.077,0.583-16.329
			c2.16-1.095,7.48,4.503,9.914,6.998c0,3.888,0,7.775,0,11.663c5.24,2.341,11.973,3.19,17.495,5.249
			c1.358-6.223,0.196-14.966,0.583-22.16c3.784,2.631,7.861,4.968,11.08,8.164c0,10.497,0,20.994,0,31.491
			c-21.836-6.35-44.505-11.867-66.48-18.078C91.007,110.239,91.007,93.716,91.007,77.193z"/>
		<path fill-rule="evenodd" clip-rule="evenodd" fill="#FFFFFF" d="M148.157,77.776c15.551-1.36,33.628-0.194,50.152-0.583
			c5.622,32.477,11.979,64.221,17.495,96.805c4.8-16.629,8.915-39.243,13.413-59.482c1.461-6.574,5.119-14.675,4.666-19.244
			c-0.598-6.016-11.032-15.089-17.495-17.495c14.385-1.36,31.296-0.195,46.653-0.583c5.638,32.657,12.024,64.563,18.078,96.805
			c7.522-25.523,13.542-52.55,20.994-78.144c-4.69-7.362-9.338-14.766-18.078-18.078c16.329-1.36,35.184-0.194,52.484-0.583
			c-13.459,57.879-27.951,114.73-41.404,172.615c-9.719,0-19.438,0-29.158,0c-5.428-33.644-11.549-66.595-16.912-100.303
			c-7.062,32.592-12.29,67.02-18.661,100.303c-9.525,0-19.05,0-28.575,0c-6.651-33.595-15.094-71.338-22.16-106.135
			C173.971,115.717,171.257,88.553,148.157,77.776z"/>
		<path fill-rule="evenodd" clip-rule="evenodd" fill="#FFFFFF" d="M456.648,77.776c-0.107-0.496,0.228-0.55,0.583-0.583
			c27.558,1.667,53.833-2.222,79.31,0c34.377,2.998,36.778,35.929,33.824,67.646c-1.108,11.889-7.056,22.194-17.495,26.242
			c8.564,26.814,18.44,52.315,27.408,78.727c-17.495,0-34.989,0-52.484,0c5.904-4.764,16.077-9.051,16.912-16.912
			c0.358-3.379-3.035-9.07-4.666-13.996c-4.347-13.135-9.23-29.693-13.412-40.821c-5.443,0-10.886,0-16.329,0
			c0,23.91,0,47.819,0,71.729c-17.883,0-35.767,0-53.65,0c26.095-9.353,20.994-46.686,20.994-86.308
			C477.643,124.73,483.623,86.902,456.648,77.776z M510.299,154.17c10.533-1.804,17.619,3.136,24.493-1.75
			c7.575-5.384,6.06-42.222,0.583-46.653c-5.958-4.82-14.787-1.107-24.492-2.333C509.522,119.181,510.688,137.453,510.299,154.17z"
			/>
		<path fill-rule="evenodd" clip-rule="evenodd" fill="#FFFFFF" d="M584.943,77.776c-0.106-0.496,0.228-0.55,0.584-0.583
			c35.124,3.438,73.227-7.025,96.221,5.832c24.279,13.576,20.994,43.232,20.994,81.06c0,22.681,2.635,49.955-5.249,64.73
			c-16.368,30.679-67.516,18.735-111.383,20.994c-1.803-0.316,1.657-2.053,2.915-2.916c8.661-5.933,15.443-12.938,16.912-27.992
			c1.399-14.336,0-34.595,0-55.4C605.938,124.241,612.012,87.757,584.943,77.776z M638.012,106.934c0,38.294,0,76.588,0,114.882
			c8.505-0.349,21.408,1.46,26.825-2.916c8.798-7.107,5.248-35.746,5.248-55.4c0-18.723,3.538-48.196-5.248-55.4
			c-5.728-4.696-17.714-2.334-26.242-2.916C637.915,105.283,637.961,106.106,638.012,106.934z"/>
		<path fill-rule="evenodd" clip-rule="evenodd" fill="#FFFFFF" d="M91.007,136.092c22.819,5.172,44.402,11.581,66.48,17.495
			c0,4.665,0,9.331,0,13.996c-9.4-1.875-18.092-4.457-26.826-6.998c-1.297,3.951-0.24,10.256-0.583,15.162
			c7.998,3.86,18.698,5.018,27.409,8.164c0,4.666,0,9.331,0,13.996c-22.516-5.476-44.104-11.879-66.48-17.495
			c0-4.859,0-9.719,0-14.579c8.891,2.772,18.522,4.804,27.409,7.581c1.355-3.893,0.198-10.298,0.583-15.162
			c-8.334-3.717-18.883-5.221-27.992-8.164C91.007,145.423,91.007,140.757,91.007,136.092z"/>
		<path fill-rule="evenodd" clip-rule="evenodd" fill="#FFFFFF" d="M91.007,189.16c3.562,1.103,7.267,2.064,11.08,2.916
			c0,3.888,0,7.776,0,11.664c17.963,5.558,37.016,10.025,55.4,15.162c0,4.859,0,9.719,0,14.579
			c-18.148-4.984-36.235-10.03-54.817-14.579c-1.359,9.137-0.196,20.798-0.583,30.907c-3.693,0-7.387,0-11.08,0
			C91.007,229.592,91.007,209.376,91.007,189.16z"/>
		<path fill-rule="evenodd" clip-rule="evenodd" fill="#FFFFFF" d="M92.757,273.718c26.437-1.36,55.4-0.194,82.809-0.583
			c18.872,53.829,37.672,107.728,56.567,161.535c4.276,0,8.553,0,12.829,0c-1.273-35.73,3.635-93.396,0.583-130.045
			c-1.293-15.528-10.382-25.562-20.411-31.49c22.938,0,45.875,0,68.813,0c0,53.65,0,107.302,0,160.952c57.149,0,114.3,0,171.449,0
			c5.475,13.77,9.735,28.752,15.162,42.57c-76.588,1.36-155.706,0.194-233.264,0.583c6.156,19.892,13.726,38.37,19.827,58.316
			c-20.022,0-40.043,0-60.065,0c-6.228-19.432-12.393-38.926-18.661-58.316c-24.935,0.054-48.759-1.004-74.061-0.583
			c-8.549,18.859-15.068,39.75-23.327,58.899c-18.855,0-37.711,0-56.566,0c4.474-13.68,11.596-29.282,17.495-44.32
			c1.844-4.7,5.215-11.547,5.249-15.162c0.07-7.523-11.127-26.629-15.162-31.49c-3.265-3.934-7.599-7.671-11.08-9.914
			c13.996,0,27.992,0,41.988,0c14.135-30.75,27.57-69.921,41.404-104.386c1.935-4.819,5.815-11.032,5.832-14.579
			c0.03-6.691-9.876-25.39-13.996-30.907C102.615,280.037,98.048,276.182,92.757,273.718z M130.079,434.67
			c14.773,0,29.547,0,44.32,0c-6.269-21.723-12.885-43.099-20.411-63.564C146.507,392.782,137.763,413.195,130.079,434.67z"/>
		<path fill-rule="evenodd" clip-rule="evenodd" fill="#FFFFFF" d="M327.771,273.718c21.966-1.36,46.458-0.194,69.396-0.583
			c0,49.763,0,99.525,0,149.289c-16.134,0-32.268,0-48.402,0c-2.079-31.278,2.721-85.122,0-117.799
			C347.547,290.016,339.35,278.619,327.771,273.718z"/>
		<path fill-rule="evenodd" clip-rule="evenodd" fill="#FFFFFF" d="M408.246,273.718c20.217-1.36,42.96-0.195,64.147-0.583
			c13.902,45.969,29.042,90.701,43.154,136.459c9.309-21.942,19.86-49.641,29.158-74.061c3.112-8.176,8.546-17.811,9.33-25.076
			c1.842-17.071-8.539-30.608-20.993-36.739c73.756-1.057,151.312-0.855,225.1,0c1.214,0.644-3.001,2.738-4.666,4.082
			c-9.852,7.959-17.199,22.695-20.993,37.322c-18.855,0-37.711,0-56.566,0c-1.36,12.83-0.195,28.186-0.583,41.987
			c16.717,1.36,35.961,0.195,53.65,0.583c-13.885,7.692-21.039,22.115-26.242,38.489c-6.927,0.083-18.571-0.061-27.408,0
			c0,12.44,0,24.881,0,37.322c27.26,1.509,57.779-0.242,85.141,1.166c0.633,1.284-2.564,2.315-4.082,3.499
			c-10.451,8.15-17.646,24.083-22.16,39.071c-61.425,0-122.854,0-184.278,0c5.249-13.995,10.788-27.7,15.745-41.987
			c20.217,0,40.433,0,60.648,0c-2.488-41.106,3.316-90.806,0-130.628c-0.938-11.258-5.673-19.694-12.829-25.659
			c-32.836,85.546-66.812,169.949-99.721,255.424c-21.522-59.96-46.901-131.03-69.396-195.942
			C436.332,315.159,429.366,283.156,408.246,273.718z"/>
		<path fill-rule="evenodd" clip-rule="evenodd" fill="#FFFFFF" d="M397.166,488.903c-16.232,16.23-31.795,33.131-48.985,48.402
			c0.966-14.586,0.977-33.234,0-47.818C363.344,488.127,381.032,489.292,397.166,488.903z"/>
		<path fill-rule="evenodd" clip-rule="evenodd" fill="#FFFFFF" d="M392.501,73.111c2.722,0,5.443,0,8.164,0
			c22.618,2.322,38.56,13.689,43.737,33.823c3.847,14.96,1.749,38.763,1.749,57.733c0,18.569,2.422,42.695-1.749,57.149
			c-13.492,46.759-91.146,40.404-96.222-8.747c-1.776-17.202,0-33.518,0-50.152c0-17.246-1.647-34.895,0-49.569
			C350.86,89.484,366.88,77.402,392.501,73.111z M380.838,136.675c0,18.284,0,37.223,0,54.817c0,8.908-0.893,21.246,1.75,26.242
			c3.786,7.16,18.484,11.015,26.242,4.082c5.038-4.502,4.666-14.789,4.666-26.242c0-7.777,0-19.434,0-31.49
			c0-16.416,3.551-50.683-4.082-58.316c-3.641-3.641-11.863-4.397-16.329-3.499C378.477,105.209,380.838,118.723,380.838,136.675z"
			/>
	</g>
</g>
</svg>
